<svg width="25" height="24" viewBox="0 0 25 24" fill="none" xmlns="http://www.w3.org/2000/svg">
<path fill-rule="evenodd" clip-rule="evenodd" d="M10.6003 5.39936C10.8932 5.69225 10.8932 6.16712 10.6003 6.46002L5.06066 11.9997L10.6003 17.5394C10.8932 17.8322 10.8932 18.3071 10.6003 18.6C10.3074 18.8929 9.83256 18.8929 9.53967 18.6L3.46967 12.53C3.32902 12.3894 3.25 12.1986 3.25 11.9997C3.25 11.8008 3.32902 11.61 3.46967 11.4694L9.53967 5.39936C9.83256 5.10646 10.3074 5.10646 10.6003 5.39936Z" fill="white"/>
<path fill-rule="evenodd" clip-rule="evenodd" d="M3.41992 12C3.41992 11.5858 3.75571 11.25 4.16992 11.25H20.9999C21.4141 11.25 21.7499 11.5858 21.7499 12C21.7499 12.4142 21.4141 12.75 20.9999 12.75H4.16992C3.75571 12.75 3.41992 12.4142 3.41992 12Z" fill="white"/>
</svg>
