<svg width="136" height="28" viewBox="0 0 136 28" fill="none" xmlns="http://www.w3.org/2000/svg">
<path d="M22.8431 11.9097L18.1714 16.4637L19.2746 22.8957C19.2983 23.0336 19.2828 23.1754 19.2301 23.305C19.1773 23.4347 19.0894 23.5469 18.9762 23.6292C18.863 23.7114 18.729 23.7604 18.5894 23.7704C18.4498 23.7805 18.3102 23.7513 18.1864 23.6862L12.4099 20.6495L6.63412 23.6855C6.51026 23.7506 6.37065 23.7798 6.23108 23.7697C6.09151 23.7596 5.95754 23.7107 5.84432 23.6284C5.7311 23.5462 5.64315 23.4339 5.59041 23.3043C5.53766 23.1747 5.52224 23.0329 5.54587 22.895L6.64912 16.463L1.97662 11.9097C1.87633 11.812 1.80539 11.6882 1.77185 11.5522C1.7383 11.4163 1.74347 11.2737 1.78679 11.1405C1.83011 11.0074 1.90984 10.889 2.01695 10.7988C2.12406 10.7086 2.25428 10.6502 2.39287 10.6302L8.84962 9.69272L11.7371 3.84122C11.9899 3.32897 12.8299 3.32897 13.0826 3.84122L15.9701 9.69272L22.4269 10.6302C22.5651 10.6507 22.6949 10.7094 22.8017 10.7997C22.9085 10.8899 22.9879 11.0082 23.0312 11.1411C23.0744 11.274 23.0797 11.4164 23.0465 11.5522C23.0133 11.6879 22.9428 11.8118 22.8431 11.9097Z" fill="#F3B209"/>
<path d="M6.63412 23.6855L13.0826 20.6495V3.84122C12.8299 3.32897 11.9899 3.32897 11.7371 3.84122L8.84962 9.69272L2.39287 10.6302C2.25428 10.6502 2.12406 10.7086 2.01695 10.7988C1.90984 10.889 1.83011 11.0074 1.78679 11.1405C1.74347 11.2737 1.7383 11.4163 1.77185 11.5522C1.80539 11.6882 1.87633 11.812 1.97662 11.9097L6.64912 16.463L5.54587 22.895C5.52224 23.0329 5.53766 23.1747 5.59041 23.3043C5.64315 23.4339 5.7311 23.5462 5.84432 23.6284C5.95754 23.7107 6.09151 23.7596 6.23108 23.7697C6.37065 23.7798 6.51026 23.7506 6.63412 23.6855Z" fill="#F3B209"/>
<path d="M50.8431 11.9097L46.1714 16.4637L47.2746 22.8957C47.2983 23.0336 47.2828 23.1754 47.2301 23.305C47.1773 23.4347 47.0894 23.5469 46.9762 23.6292C46.863 23.7114 46.729 23.7604 46.5894 23.7704C46.4498 23.7805 46.3102 23.7513 46.1864 23.6862L40.4099 20.6495L34.6341 23.6855C34.5103 23.7506 34.3707 23.7798 34.2311 23.7697C34.0915 23.7596 33.9575 23.7107 33.8443 23.6284C33.7311 23.5462 33.6431 23.4339 33.5904 23.3043C33.5377 23.1747 33.5222 23.0329 33.5459 22.895L34.6491 16.463L29.9766 11.9097C29.8763 11.812 29.8054 11.6882 29.7718 11.5522C29.7383 11.4163 29.7435 11.2737 29.7868 11.1405C29.8301 11.0074 29.9098 10.889 30.017 10.7988C30.1241 10.7086 30.2543 10.6502 30.3929 10.6302L36.8496 9.69272L39.7371 3.84122C39.9899 3.32897 40.8299 3.32897 41.0826 3.84122L43.9701 9.69272L50.4269 10.6302C50.5651 10.6507 50.6949 10.7094 50.8017 10.7997C50.9085 10.8899 50.9879 11.0082 51.0312 11.1411C51.0744 11.274 51.0797 11.4164 51.0465 11.5522C51.0133 11.6879 50.9428 11.8118 50.8431 11.9097Z" fill="#F3B209"/>
<path d="M34.6341 23.6855L41.0826 20.6495V3.84122C40.8299 3.32897 39.9899 3.32897 39.7371 3.84122L36.8496 9.69272L30.3929 10.6302C30.2543 10.6502 30.1241 10.7086 30.017 10.7988C29.9098 10.889 29.8301 11.0074 29.7868 11.1405C29.7435 11.2737 29.7383 11.4163 29.7718 11.5522C29.8054 11.6882 29.8763 11.812 29.9766 11.9097L34.6491 16.463L33.5459 22.895C33.5222 23.0329 33.5377 23.1747 33.5904 23.3043C33.6431 23.4339 33.7311 23.5462 33.8443 23.6284C33.9575 23.7107 34.0915 23.7596 34.2311 23.7697C34.3707 23.7798 34.5103 23.7506 34.6341 23.6855Z" fill="#F3B209"/>
<path d="M78.8431 11.9097L74.1714 16.4637L75.2746 22.8957C75.2983 23.0336 75.2828 23.1754 75.2301 23.305C75.1773 23.4347 75.0894 23.5469 74.9762 23.6292C74.863 23.7114 74.729 23.7604 74.5894 23.7704C74.4498 23.7805 74.3102 23.7513 74.1864 23.6862L68.4099 20.6495L62.6341 23.6855C62.5103 23.7506 62.3707 23.7798 62.2311 23.7697C62.0915 23.7596 61.9575 23.7107 61.8443 23.6284C61.7311 23.5462 61.6431 23.4339 61.5904 23.3043C61.5377 23.1747 61.5222 23.0329 61.5459 22.895L62.6491 16.463L57.9766 11.9097C57.8763 11.812 57.8054 11.6882 57.7718 11.5522C57.7383 11.4163 57.7435 11.2737 57.7868 11.1405C57.8301 11.0074 57.9098 10.889 58.017 10.7988C58.1241 10.7086 58.2543 10.6502 58.3929 10.6302L64.8496 9.69272L67.7371 3.84122C67.9899 3.32897 68.8299 3.32897 69.0826 3.84122L71.9701 9.69272L78.4269 10.6302C78.5651 10.6507 78.6949 10.7094 78.8017 10.7997C78.9085 10.8899 78.9879 11.0082 79.0312 11.1411C79.0744 11.274 79.0797 11.4164 79.0465 11.5522C79.0133 11.6879 78.9428 11.8118 78.8431 11.9097Z" fill="#5A5E66"/>
<path d="M62.6341 23.6855L69.0826 20.6495V3.84122C68.8299 3.32897 67.9899 3.32897 67.7371 3.84122L64.8496 9.69272L58.3929 10.6302C58.2543 10.6502 58.1241 10.7086 58.017 10.7988C57.9098 10.889 57.8301 11.0074 57.7868 11.1405C57.7435 11.2737 57.7383 11.4163 57.7718 11.5522C57.8054 11.6882 57.8763 11.812 57.9766 11.9097L62.6491 16.463L61.5459 22.895C61.5222 23.0329 61.5377 23.1747 61.5904 23.3043C61.6431 23.4339 61.7311 23.5462 61.8443 23.6284C61.9575 23.7107 62.0915 23.7596 62.2311 23.7697C62.3707 23.7798 62.5103 23.7506 62.6341 23.6855Z" fill="#5A5E66"/>
<path d="M106.843 11.9097L102.171 16.4637L103.275 22.8957C103.298 23.0336 103.283 23.1754 103.23 23.305C103.177 23.4347 103.089 23.5469 102.976 23.6292C102.863 23.7114 102.729 23.7604 102.589 23.7704C102.45 23.7805 102.31 23.7513 102.186 23.6862L96.4099 20.6495L90.6341 23.6855C90.5103 23.7506 90.3707 23.7798 90.2311 23.7697C90.0915 23.7596 89.9575 23.7107 89.8443 23.6284C89.7311 23.5462 89.6431 23.4339 89.5904 23.3043C89.5377 23.1747 89.5222 23.0329 89.5459 22.895L90.6491 16.463L85.9766 11.9097C85.8763 11.812 85.8054 11.6882 85.7718 11.5522C85.7383 11.4163 85.7435 11.2737 85.7868 11.1405C85.8301 11.0074 85.9098 10.889 86.017 10.7988C86.1241 10.7086 86.2543 10.6502 86.3929 10.6302L92.8496 9.69272L95.7371 3.84122C95.9899 3.32897 96.8299 3.32897 97.0826 3.84122L99.9701 9.69272L106.427 10.6302C106.565 10.6507 106.695 10.7094 106.802 10.7997C106.908 10.8899 106.988 11.0082 107.031 11.1411C107.074 11.274 107.08 11.4164 107.046 11.5522C107.013 11.6879 106.943 11.8118 106.843 11.9097Z" fill="#5A5E66"/>
<path d="M90.6341 23.6855L97.0826 20.6495V3.84122C96.8299 3.32897 95.9899 3.32897 95.7371 3.84122L92.8496 9.69272L86.3929 10.6302C86.2543 10.6502 86.1241 10.7086 86.017 10.7988C85.9098 10.889 85.8301 11.0074 85.7868 11.1405C85.7435 11.2737 85.7383 11.4163 85.7718 11.5522C85.8054 11.6882 85.8763 11.812 85.9766 11.9097L90.6491 16.463L89.5459 22.895C89.5222 23.0329 89.5377 23.1747 89.5904 23.3043C89.6431 23.4339 89.7311 23.5462 89.8443 23.6284C89.9575 23.7107 90.0915 23.7596 90.2311 23.7697C90.3707 23.7798 90.5103 23.7506 90.6341 23.6855Z" fill="#5A5E66"/>
<path d="M134.843 11.9097L130.171 16.4637L131.275 22.8957C131.298 23.0336 131.283 23.1754 131.23 23.305C131.177 23.4347 131.089 23.5469 130.976 23.6292C130.863 23.7114 130.729 23.7604 130.589 23.7704C130.45 23.7805 130.31 23.7513 130.186 23.6862L124.41 20.6495L118.634 23.6855C118.51 23.7506 118.371 23.7798 118.231 23.7697C118.092 23.7596 117.958 23.7107 117.844 23.6284C117.731 23.5462 117.643 23.4339 117.59 23.3043C117.538 23.1747 117.522 23.0329 117.546 22.895L118.649 16.463L113.977 11.9097C113.876 11.812 113.805 11.6882 113.772 11.5522C113.738 11.4163 113.743 11.2737 113.787 11.1405C113.83 11.0074 113.91 10.889 114.017 10.7988C114.124 10.7086 114.254 10.6502 114.393 10.6302L120.85 9.69272L123.737 3.84122C123.99 3.32897 124.83 3.32897 125.083 3.84122L127.97 9.69272L134.427 10.6302C134.565 10.6507 134.695 10.7094 134.802 10.7997C134.908 10.8899 134.988 11.0082 135.031 11.1411C135.074 11.274 135.08 11.4164 135.046 11.5522C135.013 11.6879 134.943 11.8118 134.843 11.9097Z" fill="#5A5E66"/>
<path d="M118.634 23.6855L125.083 20.6495V3.84122C124.83 3.32897 123.99 3.32897 123.737 3.84122L120.85 9.69272L114.393 10.6302C114.254 10.6502 114.124 10.7086 114.017 10.7988C113.91 10.889 113.83 11.0074 113.787 11.1405C113.743 11.2737 113.738 11.4163 113.772 11.5522C113.805 11.6882 113.876 11.812 113.977 11.9097L118.649 16.463L117.546 22.895C117.522 23.0329 117.538 23.1747 117.59 23.3043C117.643 23.4339 117.731 23.5462 117.844 23.6284C117.958 23.7107 118.092 23.7596 118.231 23.7697C118.371 23.7798 118.51 23.7506 118.634 23.6855Z" fill="#5A5E66"/>
</svg>
